<mxfile host="app.diagrams.net" modified="2024-04-07T01:03:38.037Z" agent="Mozilla/5.0 (Windows NT 10.0; Win64; x64) AppleWebKit/537.36 (KHTML, like Gecko) Chrome/123.0.0.0 Safari/537.36 Edg/123.0.0.0" etag="1iSd7H7p9dorxJAzn6iA" version="21.6.2" type="device" pages="2">
  <diagram name="Page-1" id="2YBvvXClWsGukQMizWep">
    <mxGraphModel dx="1466" dy="667" grid="1" gridSize="10" guides="1" tooltips="1" connect="1" arrows="1" fold="1" page="1" pageScale="1" pageWidth="850" pageHeight="1100" math="0" shadow="0">
      <root>
        <mxCell id="0" />
        <mxCell id="1" parent="0" />
        <mxCell id="aM9ryv3xv72pqoxQDRHE-5" value="Home Screen" style="shape=umlLifeline;perimeter=lifelinePerimeter;whiteSpace=wrap;html=1;container=0;dropTarget=0;collapsible=0;recursiveResize=0;outlineConnect=0;portConstraint=eastwest;newEdgeStyle={&quot;edgeStyle&quot;:&quot;elbowEdgeStyle&quot;,&quot;elbow&quot;:&quot;vertical&quot;,&quot;curved&quot;:0,&quot;rounded&quot;:0};" parent="1" vertex="1">
          <mxGeometry x="220" y="40" width="100" height="1000" as="geometry" />
        </mxCell>
        <mxCell id="aM9ryv3xv72pqoxQDRHE-6" value="" style="html=1;points=[];perimeter=orthogonalPerimeter;outlineConnect=0;targetShapes=umlLifeline;portConstraint=eastwest;newEdgeStyle={&quot;edgeStyle&quot;:&quot;elbowEdgeStyle&quot;,&quot;elbow&quot;:&quot;vertical&quot;,&quot;curved&quot;:0,&quot;rounded&quot;:0};" parent="aM9ryv3xv72pqoxQDRHE-5" vertex="1">
          <mxGeometry x="45" y="80" width="10" height="240" as="geometry" />
        </mxCell>
        <mxCell id="4ySNTo_G-UKsSzUkpXus-1" value="" style="html=1;points=[];perimeter=orthogonalPerimeter;outlineConnect=0;targetShapes=umlLifeline;portConstraint=eastwest;newEdgeStyle={&quot;edgeStyle&quot;:&quot;elbowEdgeStyle&quot;,&quot;elbow&quot;:&quot;vertical&quot;,&quot;curved&quot;:0,&quot;rounded&quot;:0};" vertex="1" parent="aM9ryv3xv72pqoxQDRHE-5">
          <mxGeometry x="45" y="400" width="10" height="600" as="geometry" />
        </mxCell>
        <mxCell id="aM9ryv3xv72pqoxQDRHE-7" value="Student Sign Up" style="html=1;verticalAlign=bottom;endArrow=block;edgeStyle=elbowEdgeStyle;elbow=horizontal;curved=0;rounded=0;" parent="1" target="aM9ryv3xv72pqoxQDRHE-6" edge="1">
          <mxGeometry relative="1" as="geometry">
            <mxPoint x="95" y="120" as="sourcePoint" />
            <Array as="points">
              <mxPoint x="180" y="120" />
            </Array>
          </mxGeometry>
        </mxCell>
        <mxCell id="aM9ryv3xv72pqoxQDRHE-8" value="Enrollment Successful" style="html=1;verticalAlign=bottom;endArrow=open;dashed=1;endSize=8;edgeStyle=elbowEdgeStyle;elbow=vertical;curved=0;rounded=0;" parent="1" source="FkFa2rvmOPyaXoFpwzKt-1" edge="1">
          <mxGeometry x="0.6445" y="-3" relative="1" as="geometry">
            <mxPoint x="93" y="323" as="targetPoint" />
            <Array as="points">
              <mxPoint x="188" y="323" />
            </Array>
            <mxPoint x="762.5" y="323" as="sourcePoint" />
            <mxPoint as="offset" />
          </mxGeometry>
        </mxCell>
        <mxCell id="dHm17pUzT8S8qEQm9v3o-14" value="" style="edgeStyle=elbowEdgeStyle;rounded=0;orthogonalLoop=1;jettySize=auto;html=1;elbow=vertical;curved=0;" parent="1" edge="1">
          <mxGeometry relative="1" as="geometry">
            <mxPoint x="584.5" y="250" as="sourcePoint" />
            <mxPoint x="763.5" y="250" as="targetPoint" />
          </mxGeometry>
        </mxCell>
        <mxCell id="dHm17pUzT8S8qEQm9v3o-15" value="&amp;lt;&amp;lt;Create Student&amp;gt;&amp;gt;&amp;nbsp;" style="edgeLabel;html=1;align=center;verticalAlign=middle;resizable=0;points=[];" parent="dHm17pUzT8S8qEQm9v3o-14" vertex="1" connectable="0">
          <mxGeometry x="-0.1676" y="5" relative="1" as="geometry">
            <mxPoint x="4" y="-5" as="offset" />
          </mxGeometry>
        </mxCell>
        <mxCell id="FkFa2rvmOPyaXoFpwzKt-1" value="Validate Rules" style="shape=umlLifeline;perimeter=lifelinePerimeter;whiteSpace=wrap;html=1;container=0;dropTarget=0;collapsible=0;recursiveResize=0;outlineConnect=0;portConstraint=eastwest;newEdgeStyle={&quot;edgeStyle&quot;:&quot;elbowEdgeStyle&quot;,&quot;elbow&quot;:&quot;vertical&quot;,&quot;curved&quot;:0,&quot;rounded&quot;:0};" parent="1" vertex="1">
          <mxGeometry x="533" y="40" width="100" height="1000" as="geometry" />
        </mxCell>
        <mxCell id="FkFa2rvmOPyaXoFpwzKt-2" value="" style="html=1;points=[];perimeter=orthogonalPerimeter;outlineConnect=0;targetShapes=umlLifeline;portConstraint=eastwest;newEdgeStyle={&quot;edgeStyle&quot;:&quot;elbowEdgeStyle&quot;,&quot;elbow&quot;:&quot;vertical&quot;,&quot;curved&quot;:0,&quot;rounded&quot;:0};" parent="FkFa2rvmOPyaXoFpwzKt-1" vertex="1">
          <mxGeometry x="45" y="80" width="10" height="240" as="geometry" />
        </mxCell>
        <mxCell id="4ySNTo_G-UKsSzUkpXus-6" value="" style="html=1;points=[];perimeter=orthogonalPerimeter;outlineConnect=0;targetShapes=umlLifeline;portConstraint=eastwest;newEdgeStyle={&quot;edgeStyle&quot;:&quot;elbowEdgeStyle&quot;,&quot;elbow&quot;:&quot;vertical&quot;,&quot;curved&quot;:0,&quot;rounded&quot;:0};" vertex="1" parent="FkFa2rvmOPyaXoFpwzKt-1">
          <mxGeometry x="45" y="400" width="10" height="600" as="geometry" />
        </mxCell>
        <mxCell id="FkFa2rvmOPyaXoFpwzKt-8" value="Database" style="shape=umlLifeline;perimeter=lifelinePerimeter;whiteSpace=wrap;html=1;container=0;dropTarget=0;collapsible=0;recursiveResize=0;outlineConnect=0;portConstraint=eastwest;newEdgeStyle={&quot;edgeStyle&quot;:&quot;elbowEdgeStyle&quot;,&quot;elbow&quot;:&quot;vertical&quot;,&quot;curved&quot;:0,&quot;rounded&quot;:0};" parent="1" vertex="1">
          <mxGeometry x="713" y="40" width="100" height="1000" as="geometry" />
        </mxCell>
        <mxCell id="FkFa2rvmOPyaXoFpwzKt-9" value="" style="html=1;points=[];perimeter=orthogonalPerimeter;outlineConnect=0;targetShapes=umlLifeline;portConstraint=eastwest;newEdgeStyle={&quot;edgeStyle&quot;:&quot;elbowEdgeStyle&quot;,&quot;elbow&quot;:&quot;vertical&quot;,&quot;curved&quot;:0,&quot;rounded&quot;:0};" parent="FkFa2rvmOPyaXoFpwzKt-8" vertex="1">
          <mxGeometry x="46" y="80" width="10" height="240" as="geometry" />
        </mxCell>
        <mxCell id="4ySNTo_G-UKsSzUkpXus-9" value="" style="html=1;points=[];perimeter=orthogonalPerimeter;outlineConnect=0;targetShapes=umlLifeline;portConstraint=eastwest;newEdgeStyle={&quot;edgeStyle&quot;:&quot;elbowEdgeStyle&quot;,&quot;elbow&quot;:&quot;vertical&quot;,&quot;curved&quot;:0,&quot;rounded&quot;:0};" vertex="1" parent="FkFa2rvmOPyaXoFpwzKt-8">
          <mxGeometry x="45" y="400" width="10" height="600" as="geometry" />
        </mxCell>
        <mxCell id="FkFa2rvmOPyaXoFpwzKt-21" value="" style="shape=umlLifeline;perimeter=lifelinePerimeter;whiteSpace=wrap;html=1;container=1;dropTarget=0;collapsible=0;recursiveResize=0;outlineConnect=0;portConstraint=eastwest;newEdgeStyle={&quot;curved&quot;:0,&quot;rounded&quot;:0};participant=umlActor;size=34;" parent="1" vertex="1">
          <mxGeometry x="83" y="36" width="20" height="1004" as="geometry" />
        </mxCell>
        <mxCell id="dHm17pUzT8S8qEQm9v3o-2" value="Registration&lt;div&gt;Form&lt;/div&gt;" style="shape=umlLifeline;perimeter=lifelinePerimeter;whiteSpace=wrap;html=1;container=0;dropTarget=0;collapsible=0;recursiveResize=0;outlineConnect=0;portConstraint=eastwest;newEdgeStyle={&quot;edgeStyle&quot;:&quot;elbowEdgeStyle&quot;,&quot;elbow&quot;:&quot;vertical&quot;,&quot;curved&quot;:0,&quot;rounded&quot;:0};" parent="1" vertex="1">
          <mxGeometry x="354" y="40" width="110" height="1000" as="geometry" />
        </mxCell>
        <mxCell id="dHm17pUzT8S8qEQm9v3o-3" value="" style="html=1;points=[];perimeter=orthogonalPerimeter;outlineConnect=0;targetShapes=umlLifeline;portConstraint=eastwest;newEdgeStyle={&quot;edgeStyle&quot;:&quot;elbowEdgeStyle&quot;,&quot;elbow&quot;:&quot;vertical&quot;,&quot;curved&quot;:0,&quot;rounded&quot;:0};" parent="dHm17pUzT8S8qEQm9v3o-2" vertex="1">
          <mxGeometry x="50" y="80" width="10" height="240" as="geometry" />
        </mxCell>
        <mxCell id="4ySNTo_G-UKsSzUkpXus-3" value="" style="html=1;points=[];perimeter=orthogonalPerimeter;outlineConnect=0;targetShapes=umlLifeline;portConstraint=eastwest;newEdgeStyle={&quot;edgeStyle&quot;:&quot;elbowEdgeStyle&quot;,&quot;elbow&quot;:&quot;vertical&quot;,&quot;curved&quot;:0,&quot;rounded&quot;:0};" vertex="1" parent="dHm17pUzT8S8qEQm9v3o-2">
          <mxGeometry x="50" y="400" width="10" height="600" as="geometry" />
        </mxCell>
        <mxCell id="dHm17pUzT8S8qEQm9v3o-8" value="" style="edgeStyle=elbowEdgeStyle;rounded=0;orthogonalLoop=1;jettySize=auto;html=1;elbow=vertical;curved=0;" parent="1" edge="1">
          <mxGeometry relative="1" as="geometry">
            <mxPoint x="275" y="153" as="sourcePoint" />
            <mxPoint x="403.5" y="153" as="targetPoint" />
          </mxGeometry>
        </mxCell>
        <mxCell id="dHm17pUzT8S8qEQm9v3o-9" value="Enrollment Form" style="text;html=1;align=center;verticalAlign=middle;resizable=0;points=[];autosize=1;strokeColor=none;fillColor=none;" parent="1" vertex="1">
          <mxGeometry x="276" y="129" width="110" height="30" as="geometry" />
        </mxCell>
        <mxCell id="dHm17pUzT8S8qEQm9v3o-12" value="" style="edgeStyle=elbowEdgeStyle;rounded=0;orthogonalLoop=1;jettySize=auto;html=1;elbow=vertical;curved=0;" parent="1" edge="1">
          <mxGeometry relative="1" as="geometry">
            <mxPoint x="418" y="179" as="sourcePoint" />
            <mxPoint x="581.5" y="179" as="targetPoint" />
          </mxGeometry>
        </mxCell>
        <mxCell id="dHm17pUzT8S8qEQm9v3o-13" value="Provide Required fields&lt;div&gt;(FName,LName,DOB,email)&lt;/div&gt;" style="edgeLabel;html=1;align=center;verticalAlign=middle;resizable=0;points=[];" parent="dHm17pUzT8S8qEQm9v3o-12" vertex="1" connectable="0">
          <mxGeometry x="-0.1289" y="8" relative="1" as="geometry">
            <mxPoint y="-7" as="offset" />
          </mxGeometry>
        </mxCell>
        <mxCell id="dHm17pUzT8S8qEQm9v3o-18" value="[Student Record Created]" style="html=1;verticalAlign=bottom;endArrow=open;dashed=1;endSize=8;edgeStyle=elbowEdgeStyle;elbow=vertical;curved=0;rounded=0;" parent="1" edge="1">
          <mxGeometry relative="1" as="geometry">
            <mxPoint x="586" y="287" as="targetPoint" />
            <Array as="points">
              <mxPoint x="681" y="287" />
            </Array>
            <mxPoint x="756" y="287" as="sourcePoint" />
          </mxGeometry>
        </mxCell>
        <mxCell id="dHm17pUzT8S8qEQm9v3o-19" value="" style="html=1;points=[[0,0,0,0,5],[0,1,0,0,-5],[1,0,0,0,5],[1,1,0,0,-5]];perimeter=orthogonalPerimeter;outlineConnect=0;targetShapes=umlLifeline;portConstraint=eastwest;newEdgeStyle={&quot;curved&quot;:0,&quot;rounded&quot;:0};" parent="1" vertex="1">
          <mxGeometry x="584" y="187" width="10" height="40" as="geometry" />
        </mxCell>
        <mxCell id="dHm17pUzT8S8qEQm9v3o-20" value="validate data()" style="html=1;align=left;spacingLeft=2;endArrow=block;rounded=0;edgeStyle=orthogonalEdgeStyle;curved=0;rounded=0;" parent="1" target="dHm17pUzT8S8qEQm9v3o-19" edge="1">
          <mxGeometry relative="1" as="geometry">
            <mxPoint x="589" y="180" as="sourcePoint" />
            <Array as="points">
              <mxPoint x="619" y="210" />
            </Array>
          </mxGeometry>
        </mxCell>
        <mxCell id="dHm17pUzT8S8qEQm9v3o-22" value="Invalid Data()" style="html=1;verticalAlign=bottom;endArrow=open;dashed=1;endSize=8;edgeStyle=elbowEdgeStyle;elbow=vertical;curved=0;rounded=0;" parent="1" edge="1">
          <mxGeometry relative="1" as="geometry">
            <mxPoint x="415" y="208" as="targetPoint" />
            <Array as="points">
              <mxPoint x="510" y="208" />
            </Array>
            <mxPoint x="569" y="208" as="sourcePoint" />
          </mxGeometry>
        </mxCell>
        <mxCell id="dHm17pUzT8S8qEQm9v3o-23" value="Missing Required Field" style="html=1;verticalAlign=bottom;endArrow=open;dashed=1;endSize=8;edgeStyle=elbowEdgeStyle;elbow=vertical;curved=0;rounded=0;" parent="1" edge="1">
          <mxGeometry relative="1" as="geometry">
            <mxPoint x="277" y="225" as="targetPoint" />
            <Array as="points">
              <mxPoint x="372" y="225" />
            </Array>
            <mxPoint x="400" y="225" as="sourcePoint" />
          </mxGeometry>
        </mxCell>
        <mxCell id="dHm17pUzT8S8qEQm9v3o-26" value="SNS" style="shape=umlLifeline;perimeter=lifelinePerimeter;whiteSpace=wrap;html=1;container=0;dropTarget=0;collapsible=0;recursiveResize=0;outlineConnect=0;portConstraint=eastwest;newEdgeStyle={&quot;edgeStyle&quot;:&quot;elbowEdgeStyle&quot;,&quot;elbow&quot;:&quot;vertical&quot;,&quot;curved&quot;:0,&quot;rounded&quot;:0};" parent="1" vertex="1">
          <mxGeometry x="893" y="40" width="100" height="1000" as="geometry" />
        </mxCell>
        <mxCell id="dHm17pUzT8S8qEQm9v3o-32" value="" style="html=1;points=[];perimeter=orthogonalPerimeter;outlineConnect=0;targetShapes=umlLifeline;portConstraint=eastwest;newEdgeStyle={&quot;edgeStyle&quot;:&quot;elbowEdgeStyle&quot;,&quot;elbow&quot;:&quot;vertical&quot;,&quot;curved&quot;:0,&quot;rounded&quot;:0};" parent="dHm17pUzT8S8qEQm9v3o-26" vertex="1">
          <mxGeometry x="45" y="80" width="10" height="240" as="geometry" />
        </mxCell>
        <mxCell id="4ySNTo_G-UKsSzUkpXus-18" value="" style="html=1;points=[];perimeter=orthogonalPerimeter;outlineConnect=0;targetShapes=umlLifeline;portConstraint=eastwest;newEdgeStyle={&quot;edgeStyle&quot;:&quot;elbowEdgeStyle&quot;,&quot;elbow&quot;:&quot;vertical&quot;,&quot;curved&quot;:0,&quot;rounded&quot;:0};" vertex="1" parent="dHm17pUzT8S8qEQm9v3o-26">
          <mxGeometry x="45" y="400" width="10" height="600" as="geometry" />
        </mxCell>
        <mxCell id="dHm17pUzT8S8qEQm9v3o-33" value="" style="edgeStyle=elbowEdgeStyle;rounded=0;orthogonalLoop=1;jettySize=auto;html=1;elbow=vertical;curved=0;" parent="1" edge="1">
          <mxGeometry relative="1" as="geometry">
            <mxPoint x="769" y="266" as="sourcePoint" />
            <mxPoint x="938" y="266" as="targetPoint" />
          </mxGeometry>
        </mxCell>
        <mxCell id="dHm17pUzT8S8qEQm9v3o-34" value="Publish Email" style="edgeLabel;html=1;align=center;verticalAlign=middle;resizable=0;points=[];" parent="1" vertex="1" connectable="0">
          <mxGeometry x="850.5" y="246" as="geometry">
            <mxPoint x="-2" y="7" as="offset" />
          </mxGeometry>
        </mxCell>
        <mxCell id="4ySNTo_G-UKsSzUkpXus-2" value="Admin Login" style="html=1;verticalAlign=bottom;endArrow=block;edgeStyle=elbowEdgeStyle;elbow=vertical;curved=0;rounded=0;" edge="1" parent="1">
          <mxGeometry width="80" relative="1" as="geometry">
            <mxPoint x="92.5" y="440" as="sourcePoint" />
            <mxPoint x="269.5" y="440" as="targetPoint" />
          </mxGeometry>
        </mxCell>
        <mxCell id="4ySNTo_G-UKsSzUkpXus-4" value="Search Student" style="html=1;verticalAlign=bottom;endArrow=block;edgeStyle=elbowEdgeStyle;elbow=vertical;curved=0;rounded=0;" edge="1" parent="1">
          <mxGeometry width="80" relative="1" as="geometry">
            <mxPoint x="280" y="468" as="sourcePoint" />
            <mxPoint x="408.5" y="468" as="targetPoint" />
          </mxGeometry>
        </mxCell>
        <mxCell id="4ySNTo_G-UKsSzUkpXus-5" value="Search By (Student Id)" style="html=1;verticalAlign=bottom;endArrow=block;edgeStyle=elbowEdgeStyle;elbow=vertical;curved=0;rounded=0;" edge="1" parent="1">
          <mxGeometry width="80" relative="1" as="geometry">
            <mxPoint x="410" y="485" as="sourcePoint" />
            <mxPoint x="582.5" y="485" as="targetPoint" />
          </mxGeometry>
        </mxCell>
        <mxCell id="4ySNTo_G-UKsSzUkpXus-7" value="" style="html=1;points=[];perimeter=orthogonalPerimeter;outlineConnect=0;targetShapes=umlLifeline;portConstraint=eastwest;newEdgeStyle={&quot;edgeStyle&quot;:&quot;elbowEdgeStyle&quot;,&quot;elbow&quot;:&quot;vertical&quot;,&quot;curved&quot;:0,&quot;rounded&quot;:0};" vertex="1" parent="1">
          <mxGeometry x="584" y="557" width="10" height="40" as="geometry" />
        </mxCell>
        <mxCell id="4ySNTo_G-UKsSzUkpXus-8" value="Check Authorized User()" style="html=1;align=left;spacingLeft=2;endArrow=block;rounded=0;edgeStyle=orthogonalEdgeStyle;curved=0;rounded=0;" edge="1" target="4ySNTo_G-UKsSzUkpXus-7" parent="1">
          <mxGeometry relative="1" as="geometry">
            <mxPoint x="590" y="547" as="sourcePoint" />
            <Array as="points">
              <mxPoint x="614" y="577" />
            </Array>
          </mxGeometry>
        </mxCell>
        <mxCell id="4ySNTo_G-UKsSzUkpXus-10" value="Unauthorized User" style="html=1;verticalAlign=bottom;endArrow=open;dashed=1;endSize=8;edgeStyle=elbowEdgeStyle;elbow=vertical;curved=0;rounded=0;" edge="1" parent="1">
          <mxGeometry x="-0.4249" y="-2" relative="1" as="geometry">
            <mxPoint x="269.5" y="589" as="targetPoint" />
            <Array as="points">
              <mxPoint x="520" y="589" />
            </Array>
            <mxPoint x="579" y="589" as="sourcePoint" />
            <mxPoint as="offset" />
          </mxGeometry>
        </mxCell>
        <mxCell id="4ySNTo_G-UKsSzUkpXus-13" value="Student Record Deleted&amp;nbsp;" style="html=1;verticalAlign=bottom;endArrow=open;dashed=1;endSize=8;edgeStyle=elbowEdgeStyle;elbow=vertical;curved=0;rounded=0;" edge="1" parent="1">
          <mxGeometry relative="1" as="geometry">
            <mxPoint x="590" y="947" as="targetPoint" />
            <Array as="points">
              <mxPoint x="684" y="947" />
            </Array>
            <mxPoint x="759" y="947" as="sourcePoint" />
          </mxGeometry>
        </mxCell>
        <mxCell id="4ySNTo_G-UKsSzUkpXus-14" value="" style="edgeStyle=elbowEdgeStyle;rounded=0;orthogonalLoop=1;jettySize=auto;html=1;elbow=vertical;curved=0;" edge="1" parent="1">
          <mxGeometry relative="1" as="geometry">
            <mxPoint x="588.5" y="801" as="sourcePoint" />
            <mxPoint x="760" y="801" as="targetPoint" />
          </mxGeometry>
        </mxCell>
        <mxCell id="4ySNTo_G-UKsSzUkpXus-15" value="getStudentById()" style="edgeLabel;html=1;align=center;verticalAlign=middle;resizable=0;points=[];" vertex="1" connectable="0" parent="4ySNTo_G-UKsSzUkpXus-14">
          <mxGeometry x="-0.1676" y="5" relative="1" as="geometry">
            <mxPoint x="4" y="-4" as="offset" />
          </mxGeometry>
        </mxCell>
        <mxCell id="4ySNTo_G-UKsSzUkpXus-16" value="Return Student Record /&lt;br&gt;Student Deleted" style="html=1;verticalAlign=bottom;endArrow=open;dashed=1;endSize=8;edgeStyle=elbowEdgeStyle;elbow=vertical;curved=0;rounded=0;" edge="1" parent="1">
          <mxGeometry x="0.6445" y="-3" relative="1" as="geometry">
            <mxPoint x="94" y="1020" as="targetPoint" />
            <Array as="points">
              <mxPoint x="189" y="1020" />
            </Array>
            <mxPoint x="580" y="1020" as="sourcePoint" />
            <mxPoint as="offset" />
          </mxGeometry>
        </mxCell>
        <mxCell id="4ySNTo_G-UKsSzUkpXus-17" value="User" style="text;html=1;align=center;verticalAlign=middle;resizable=0;points=[];autosize=1;strokeColor=none;fillColor=none;" vertex="1" parent="1">
          <mxGeometry x="65" y="58" width="50" height="30" as="geometry" />
        </mxCell>
        <mxCell id="4ySNTo_G-UKsSzUkpXus-19" value="" style="html=1;points=[];perimeter=orthogonalPerimeter;outlineConnect=0;targetShapes=umlLifeline;portConstraint=eastwest;newEdgeStyle={&quot;edgeStyle&quot;:&quot;elbowEdgeStyle&quot;,&quot;elbow&quot;:&quot;vertical&quot;,&quot;curved&quot;:0,&quot;rounded&quot;:0};" vertex="1" parent="1">
          <mxGeometry x="584" y="647" width="10" height="40" as="geometry" />
        </mxCell>
        <mxCell id="4ySNTo_G-UKsSzUkpXus-20" value="Invalid ID" style="html=1;verticalAlign=bottom;endArrow=open;dashed=1;endSize=8;edgeStyle=elbowEdgeStyle;elbow=vertical;curved=0;rounded=0;" edge="1" parent="1">
          <mxGeometry relative="1" as="geometry">
            <mxPoint x="412" y="679" as="targetPoint" />
            <Array as="points">
              <mxPoint x="518" y="679" />
            </Array>
            <mxPoint x="577" y="679" as="sourcePoint" />
          </mxGeometry>
        </mxCell>
        <mxCell id="4ySNTo_G-UKsSzUkpXus-21" value="Valid Id Required" style="html=1;verticalAlign=bottom;endArrow=open;dashed=1;endSize=8;edgeStyle=elbowEdgeStyle;elbow=vertical;curved=0;rounded=0;" edge="1" parent="1">
          <mxGeometry relative="1" as="geometry">
            <mxPoint x="276" y="700" as="targetPoint" />
            <Array as="points">
              <mxPoint x="371" y="700" />
            </Array>
            <mxPoint x="399" y="700" as="sourcePoint" />
          </mxGeometry>
        </mxCell>
        <mxCell id="4ySNTo_G-UKsSzUkpXus-22" value="Validate Id())" style="html=1;align=left;spacingLeft=2;endArrow=block;rounded=0;edgeStyle=orthogonalEdgeStyle;curved=0;rounded=0;" edge="1" parent="1">
          <mxGeometry relative="1" as="geometry">
            <mxPoint x="600" y="637" as="sourcePoint" />
            <Array as="points">
              <mxPoint x="590" y="637" />
              <mxPoint x="590" y="638" />
              <mxPoint x="619" y="638" />
              <mxPoint x="619" y="668" />
            </Array>
            <mxPoint x="594" y="668" as="targetPoint" />
          </mxGeometry>
        </mxCell>
        <mxCell id="4ySNTo_G-UKsSzUkpXus-23" value="Alt" style="shape=umlFrame;whiteSpace=wrap;html=1;pointerEvents=0;" vertex="1" parent="1">
          <mxGeometry x="520" y="750" width="270" height="240" as="geometry" />
        </mxCell>
        <mxCell id="4ySNTo_G-UKsSzUkpXus-24" value="" style="edgeStyle=elbowEdgeStyle;rounded=0;orthogonalLoop=1;jettySize=auto;html=1;elbow=vertical;curved=0;" edge="1" parent="1">
          <mxGeometry relative="1" as="geometry">
            <mxPoint x="588.5" y="910" as="sourcePoint" />
            <mxPoint x="760" y="910" as="targetPoint" />
          </mxGeometry>
        </mxCell>
        <mxCell id="4ySNTo_G-UKsSzUkpXus-25" value="deleteStudentById()" style="edgeLabel;html=1;align=center;verticalAlign=middle;resizable=0;points=[];" vertex="1" connectable="0" parent="4ySNTo_G-UKsSzUkpXus-24">
          <mxGeometry x="-0.1676" y="5" relative="1" as="geometry">
            <mxPoint x="4" y="-3" as="offset" />
          </mxGeometry>
        </mxCell>
        <mxCell id="4ySNTo_G-UKsSzUkpXus-26" value="Return Student Record&amp;nbsp;" style="html=1;verticalAlign=bottom;endArrow=open;dashed=1;endSize=8;edgeStyle=elbowEdgeStyle;elbow=vertical;curved=0;rounded=0;" edge="1" parent="1">
          <mxGeometry relative="1" as="geometry">
            <mxPoint x="588" y="828" as="targetPoint" />
            <Array as="points">
              <mxPoint x="682" y="828" />
            </Array>
            <mxPoint x="757" y="828" as="sourcePoint" />
          </mxGeometry>
        </mxCell>
        <mxCell id="4ySNTo_G-UKsSzUkpXus-27" value="" style="line;strokeWidth=1;fillColor=none;align=left;verticalAlign=middle;spacingTop=-1;spacingLeft=3;spacingRight=3;rotatable=0;labelPosition=right;points=[];portConstraint=eastwest;strokeColor=inherit;" vertex="1" parent="1">
          <mxGeometry x="520" y="847" width="270" height="8" as="geometry" />
        </mxCell>
        <mxCell id="4ySNTo_G-UKsSzUkpXus-28" value="Alt&lt;br&gt;if auth." style="shape=umlFrame;whiteSpace=wrap;html=1;pointerEvents=0;" vertex="1" parent="1">
          <mxGeometry x="294" y="520" width="406" height="200" as="geometry" />
        </mxCell>
        <mxCell id="4ySNTo_G-UKsSzUkpXus-29" value="Analytics" style="shape=umlLifeline;perimeter=lifelinePerimeter;whiteSpace=wrap;html=1;container=1;dropTarget=0;collapsible=0;recursiveResize=0;outlineConnect=0;portConstraint=eastwest;newEdgeStyle={&quot;edgeStyle&quot;:&quot;elbowEdgeStyle&quot;,&quot;elbow&quot;:&quot;vertical&quot;,&quot;curved&quot;:0,&quot;rounded&quot;:0};" vertex="1" parent="1">
          <mxGeometry x="1060" y="40" width="100" height="1000" as="geometry" />
        </mxCell>
        <mxCell id="4ySNTo_G-UKsSzUkpXus-30" value="" style="html=1;points=[];perimeter=orthogonalPerimeter;outlineConnect=0;targetShapes=umlLifeline;portConstraint=eastwest;newEdgeStyle={&quot;edgeStyle&quot;:&quot;elbowEdgeStyle&quot;,&quot;elbow&quot;:&quot;vertical&quot;,&quot;curved&quot;:0,&quot;rounded&quot;:0};" vertex="1" parent="4ySNTo_G-UKsSzUkpXus-29">
          <mxGeometry x="45" y="220" width="10" height="63" as="geometry" />
        </mxCell>
        <mxCell id="4ySNTo_G-UKsSzUkpXus-31" value="" style="edgeStyle=elbowEdgeStyle;rounded=0;orthogonalLoop=1;jettySize=auto;html=1;elbow=vertical;curved=0;" edge="1" parent="1">
          <mxGeometry relative="1" as="geometry">
            <mxPoint x="950" y="295" as="sourcePoint" />
            <mxPoint x="1105" y="295" as="targetPoint" />
          </mxGeometry>
        </mxCell>
        <mxCell id="4ySNTo_G-UKsSzUkpXus-32" value="" style="line;strokeWidth=1;fillColor=none;align=left;verticalAlign=middle;spacingTop=-1;spacingLeft=3;spacingRight=3;rotatable=0;labelPosition=right;points=[];portConstraint=eastwest;strokeColor=inherit;" vertex="1" parent="1">
          <mxGeometry x="294" y="620" width="406" height="8" as="geometry" />
        </mxCell>
        <mxCell id="4ySNTo_G-UKsSzUkpXus-34" value="[Then]" style="text;html=1;strokeColor=none;fillColor=none;align=center;verticalAlign=middle;whiteSpace=wrap;rounded=0;" vertex="1" parent="1">
          <mxGeometry x="294" y="628" width="46" height="12" as="geometry" />
        </mxCell>
        <mxCell id="4ySNTo_G-UKsSzUkpXus-36" value="" style="edgeStyle=elbowEdgeStyle;rounded=0;orthogonalLoop=1;jettySize=auto;html=1;elbow=vertical;curved=0;" edge="1" parent="1">
          <mxGeometry relative="1" as="geometry">
            <mxPoint x="790" y="902" as="sourcePoint" />
            <mxPoint x="940" y="902" as="targetPoint" />
          </mxGeometry>
        </mxCell>
        <mxCell id="4ySNTo_G-UKsSzUkpXus-37" value="Publish Email" style="edgeLabel;html=1;align=center;verticalAlign=middle;resizable=0;points=[];" vertex="1" connectable="0" parent="1">
          <mxGeometry x="860.5" y="882" as="geometry">
            <mxPoint x="-2" y="7" as="offset" />
          </mxGeometry>
        </mxCell>
        <mxCell id="4ySNTo_G-UKsSzUkpXus-38" value="[idvalidation= true]" style="text;html=1;strokeColor=none;fillColor=none;align=center;verticalAlign=middle;whiteSpace=wrap;rounded=0;" vertex="1" parent="1">
          <mxGeometry x="610" y="757" width="120" height="20" as="geometry" />
        </mxCell>
        <mxCell id="4ySNTo_G-UKsSzUkpXus-39" value="Authorization= true]" style="text;html=1;strokeColor=none;fillColor=none;align=center;verticalAlign=middle;whiteSpace=wrap;rounded=0;" vertex="1" parent="1">
          <mxGeometry x="608" y="855" width="120" height="20" as="geometry" />
        </mxCell>
        <mxCell id="4ySNTo_G-UKsSzUkpXus-41" value="Report" style="text;html=1;strokeColor=none;fillColor=none;align=center;verticalAlign=middle;whiteSpace=wrap;rounded=0;" vertex="1" parent="1">
          <mxGeometry x="993" y="270" width="60" height="30" as="geometry" />
        </mxCell>
        <mxCell id="4ySNTo_G-UKsSzUkpXus-42" value="" style="edgeStyle=elbowEdgeStyle;rounded=0;orthogonalLoop=1;jettySize=auto;html=1;elbow=vertical;curved=0;" edge="1" parent="1">
          <mxGeometry relative="1" as="geometry">
            <mxPoint x="952" y="928" as="sourcePoint" />
            <mxPoint x="1107" y="928" as="targetPoint" />
          </mxGeometry>
        </mxCell>
        <mxCell id="4ySNTo_G-UKsSzUkpXus-43" value="Report" style="text;html=1;strokeColor=none;fillColor=none;align=center;verticalAlign=middle;whiteSpace=wrap;rounded=0;" vertex="1" parent="1">
          <mxGeometry x="995" y="903" width="60" height="30" as="geometry" />
        </mxCell>
      </root>
    </mxGraphModel>
  </diagram>
  <diagram id="r70ETPcxYt2MTizx0PrS" name="Page-2">
    <mxGraphModel dx="1072" dy="481" grid="1" gridSize="10" guides="1" tooltips="1" connect="1" arrows="1" fold="1" page="1" pageScale="1" pageWidth="850" pageHeight="1100" math="0" shadow="0">
      <root>
        <mxCell id="0" />
        <mxCell id="1" parent="0" />
      </root>
    </mxGraphModel>
  </diagram>
</mxfile>
